<?xml version="1.0" encoding="UTF-8" standalone="no"?>
<!-- Created with Inkscape (http://www.inkscape.org/) -->

<svg
   width="210mm"
   height="297mm"
   viewBox="0 0 210 297"
   version="1.1"
   id="svg1"
   inkscape:version="1.4.4 (dcaf3e7d9e, 2026-05-05)"
   sodipodi:docname="logo.svg"
   xmlns:inkscape="http://www.inkscape.org/namespaces/inkscape"
   xmlns:sodipodi="http://sodipodi.sourceforge.net/DTD/sodipodi-0.dtd"
   xmlns="http://www.w3.org/2000/svg"
   xmlns:svg="http://www.w3.org/2000/svg">
  <sodipodi:namedview
     id="namedview1"
     pagecolor="#ffffff"
     bordercolor="#cccccc"
     borderopacity="1"
     inkscape:showpageshadow="0"
     inkscape:pageopacity="1"
     inkscape:pagecheckerboard="0"
     inkscape:deskcolor="#d1d1d1"
     inkscape:document-units="mm"
     inkscape:zoom="5.8511223"
     inkscape:cx="150.22759"
     inkscape:cy="122.45514"
     inkscape:window-width="1920"
     inkscape:window-height="1008"
     inkscape:window-x="0"
     inkscape:window-y="0"
     inkscape:window-maximized="1"
     inkscape:current-layer="layer1" />
  <defs
     id="defs1">
    <inkscape:path-effect
       effect="bspline"
       id="path-effect31"
       is_visible="true"
       lpeversion="1.3"
       weight="33.333333"
       steps="2"
       helper_size="0"
       apply_no_weight="true"
       apply_with_weight="true"
       only_selected="false"
       uniform="false" />
    <inkscape:path-effect
       effect="bspline"
       id="path-effect29"
       is_visible="true"
       lpeversion="1.3"
       weight="33.333333"
       steps="2"
       helper_size="0"
       apply_no_weight="true"
       apply_with_weight="true"
       only_selected="false"
       uniform="false" />
    <inkscape:path-effect
       effect="bspline"
       id="path-effect28"
       is_visible="true"
       lpeversion="1.3"
       weight="33.333333"
       steps="2"
       helper_size="0"
       apply_no_weight="true"
       apply_with_weight="true"
       only_selected="false"
       uniform="false" />
    <inkscape:path-effect
       effect="bspline"
       id="path-effect27"
       is_visible="true"
       lpeversion="1.3"
       weight="33.333333"
       steps="2"
       helper_size="0"
       apply_no_weight="true"
       apply_with_weight="true"
       only_selected="false"
       uniform="false" />
    <inkscape:path-effect
       effect="bspline"
       id="path-effect26"
       is_visible="true"
       lpeversion="1.3"
       weight="33.333333"
       steps="2"
       helper_size="0"
       apply_no_weight="true"
       apply_with_weight="true"
       only_selected="false"
       uniform="false" />
    <rect
       x="61.633382"
       y="122.29997"
       width="47.13141"
       height="25.136752"
       id="rect26" />
    <inkscape:path-effect
       effect="bspline"
       id="path-effect25"
       is_visible="true"
       lpeversion="1.3"
       weight="33.333333"
       steps="2"
       helper_size="0"
       apply_no_weight="true"
       apply_with_weight="true"
       only_selected="false"
       uniform="false" />
    <inkscape:path-effect
       effect="bspline"
       id="path-effect24"
       is_visible="true"
       lpeversion="1.3"
       weight="33.333333"
       steps="2"
       helper_size="0"
       apply_no_weight="true"
       apply_with_weight="true"
       only_selected="false"
       uniform="false" />
    <inkscape:path-effect
       effect="bspline"
       id="path-effect23"
       is_visible="true"
       lpeversion="1.3"
       weight="33.333333"
       steps="2"
       helper_size="0"
       apply_no_weight="true"
       apply_with_weight="true"
       only_selected="false"
       uniform="false" />
    <inkscape:path-effect
       effect="bspline"
       id="path-effect22"
       is_visible="true"
       lpeversion="1.3"
       weight="33.333333"
       steps="2"
       helper_size="0"
       apply_no_weight="true"
       apply_with_weight="true"
       only_selected="false"
       uniform="false" />
    <inkscape:path-effect
       effect="bspline"
       id="path-effect21"
       is_visible="true"
       lpeversion="1.3"
       weight="33.333333"
       steps="2"
       helper_size="0"
       apply_no_weight="true"
       apply_with_weight="true"
       only_selected="false"
       uniform="false" />
    <inkscape:path-effect
       effect="bspline"
       id="path-effect20"
       is_visible="true"
       lpeversion="1.3"
       weight="33.333333"
       steps="2"
       helper_size="0"
       apply_no_weight="true"
       apply_with_weight="true"
       only_selected="false"
       uniform="false" />
    <inkscape:path-effect
       effect="bspline"
       id="path-effect19"
       is_visible="true"
       lpeversion="1.3"
       weight="33.333333"
       steps="2"
       helper_size="0"
       apply_no_weight="true"
       apply_with_weight="true"
       only_selected="false"
       uniform="false" />
    <inkscape:path-effect
       effect="bspline"
       id="path-effect18"
       is_visible="true"
       lpeversion="1.3"
       weight="33.333333"
       steps="2"
       helper_size="0"
       apply_no_weight="true"
       apply_with_weight="true"
       only_selected="false"
       uniform="false" />
    <inkscape:path-effect
       effect="bspline"
       id="path-effect17"
       is_visible="true"
       lpeversion="1.3"
       weight="33.333333"
       steps="2"
       helper_size="0"
       apply_no_weight="true"
       apply_with_weight="true"
       only_selected="false"
       uniform="false" />
    <inkscape:path-effect
       effect="bspline"
       id="path-effect16"
       is_visible="true"
       lpeversion="1.3"
       weight="33.333333"
       steps="2"
       helper_size="0"
       apply_no_weight="true"
       apply_with_weight="true"
       only_selected="false"
       uniform="false" />
    <inkscape:path-effect
       effect="bspline"
       id="path-effect15"
       is_visible="true"
       lpeversion="1.3"
       weight="33.333333"
       steps="2"
       helper_size="0"
       apply_no_weight="true"
       apply_with_weight="true"
       only_selected="false"
       uniform="false" />
    <inkscape:path-effect
       effect="bspline"
       id="path-effect14"
       is_visible="true"
       lpeversion="1.3"
       weight="33.333333"
       steps="2"
       helper_size="0"
       apply_no_weight="true"
       apply_with_weight="true"
       only_selected="false"
       uniform="false" />
    <inkscape:path-effect
       effect="bspline"
       id="path-effect13"
       is_visible="true"
       lpeversion="1.3"
       weight="33.333333"
       steps="2"
       helper_size="0"
       apply_no_weight="true"
       apply_with_weight="true"
       only_selected="false"
       uniform="false" />
    <inkscape:path-effect
       effect="bspline"
       id="path-effect12"
       is_visible="true"
       lpeversion="1.3"
       weight="33.333333"
       steps="2"
       helper_size="0"
       apply_no_weight="true"
       apply_with_weight="true"
       only_selected="false"
       uniform="false" />
    <inkscape:path-effect
       effect="bspline"
       id="path-effect11"
       is_visible="true"
       lpeversion="1.3"
       weight="33.333333"
       steps="2"
       helper_size="0"
       apply_no_weight="true"
       apply_with_weight="true"
       only_selected="false"
       uniform="false" />
    <inkscape:path-effect
       effect="bspline"
       id="path-effect10"
       is_visible="true"
       lpeversion="1.3"
       weight="33.333333"
       steps="2"
       helper_size="0"
       apply_no_weight="true"
       apply_with_weight="true"
       only_selected="false"
       uniform="false" />
    <inkscape:path-effect
       effect="bspline"
       id="path-effect9"
       is_visible="true"
       lpeversion="1.3"
       weight="33.333333"
       steps="2"
       helper_size="0"
       apply_no_weight="true"
       apply_with_weight="true"
       only_selected="false"
       uniform="false" />
    <inkscape:path-effect
       effect="bspline"
       id="path-effect8"
       is_visible="true"
       lpeversion="1.3"
       weight="33.333333"
       steps="2"
       helper_size="0"
       apply_no_weight="true"
       apply_with_weight="true"
       only_selected="false"
       uniform="false" />
    <inkscape:path-effect
       effect="bspline"
       id="path-effect7"
       is_visible="true"
       lpeversion="1.3"
       weight="33.333333"
       steps="2"
       helper_size="0"
       apply_no_weight="true"
       apply_with_weight="true"
       only_selected="false"
       uniform="false" />
    <inkscape:path-effect
       effect="bspline"
       id="path-effect6"
       is_visible="true"
       lpeversion="1.3"
       weight="33.333333"
       steps="2"
       helper_size="0"
       apply_no_weight="true"
       apply_with_weight="true"
       only_selected="false"
       uniform="false" />
    <inkscape:path-effect
       effect="bspline"
       id="path-effect5"
       is_visible="true"
       lpeversion="1.3"
       weight="33.333333"
       steps="2"
       helper_size="0"
       apply_no_weight="true"
       apply_with_weight="true"
       only_selected="false"
       uniform="false" />
    <inkscape:path-effect
       effect="bspline"
       id="path-effect5-7"
       is_visible="true"
       lpeversion="1.3"
       weight="33.333333"
       steps="2"
       helper_size="0"
       apply_no_weight="true"
       apply_with_weight="true"
       only_selected="false"
       uniform="false" />
    <inkscape:path-effect
       effect="bspline"
       id="path-effect6-9"
       is_visible="true"
       lpeversion="1.3"
       weight="33.333333"
       steps="2"
       helper_size="0"
       apply_no_weight="true"
       apply_with_weight="true"
       only_selected="false"
       uniform="false" />
    <inkscape:path-effect
       effect="bspline"
       id="path-effect7-6"
       is_visible="true"
       lpeversion="1.3"
       weight="33.333333"
       steps="2"
       helper_size="0"
       apply_no_weight="true"
       apply_with_weight="true"
       only_selected="false"
       uniform="false" />
    <inkscape:path-effect
       effect="bspline"
       id="path-effect8-2"
       is_visible="true"
       lpeversion="1.3"
       weight="33.333333"
       steps="2"
       helper_size="0"
       apply_no_weight="true"
       apply_with_weight="true"
       only_selected="false"
       uniform="false" />
  </defs>
  <g
     inkscape:label="Layer 1"
     inkscape:groupmode="layer"
     id="layer1">
    <path
       style="fill:none;fill-opacity:1;stroke:#101828;stroke-width:0.687999;stroke-linecap:round;stroke-linejoin:round;stroke-opacity:1;paint-order:markers stroke fill"
       d="m 41.759134,8.1056204 c 0.197178,0.4956101 0.394356,0.9912199 0.46097,1.5507857 0.06661,0.5595659 0.0027,1.1830629 -0.202511,1.8545409 -0.205175,0.671479 -0.551563,1.390899 -0.897957,2.110333"
       id="path5"
       inkscape:path-effect="#path-effect6"
       inkscape:original-d="m 41.759134,8.1056204 c 0.197178,0.4956101 0.394356,0.9912199 0.591534,1.48683 -0.06395,0.6235216 -0.127899,1.2470186 -0.191849,1.8705276 -0.346401,0.719448 -0.692788,1.438868 -1.039183,2.158302"
       transform="matrix(0.81717495,0,0,1.0826054,5.0073358,8.3165561)" />
    <path
       style="fill:none;fill-opacity:1;stroke:#101828;stroke-width:0.687999;stroke-linecap:round;stroke-linejoin:round;stroke-opacity:1;paint-order:markers stroke fill"
       d="m 45.513169,7.9811966 c -0.437119,0.6933613 -0.874238,1.3867241 -0.942064,2.3438764 -0.06783,0.957153 0.233629,2.178048 0.53509,3.398968"
       id="path6"
       inkscape:path-effect="#path-effect7"
       inkscape:original-d="m 45.513169,7.9811966 c -0.437118,0.6933618 -0.874239,1.3867236 -1.311357,2.0800854 0.301467,1.220944 0.602922,2.441839 0.904383,3.662759"
       transform="matrix(0.81717495,0,0,1.0826054,4.6747674,8.5380304)" />
    <path
       style="fill:none;fill-opacity:1;stroke:#101828;stroke-width:0.687999;stroke-linecap:round;stroke-linejoin:round;stroke-opacity:1;paint-order:markers stroke fill"
       d="m 42.419907,8.8016693 c 0.435701,0.9851121 0.871402,1.9702227 1.319121,2.7906247 0.44772,0.820402 0.907439,1.476068 1.367167,2.131747"
       id="path7"
       inkscape:path-effect="#path-effect8"
       inkscape:original-d="m 42.419907,8.8016693 c 0.435703,0.9851114 0.871403,1.9702227 1.307103,2.9553337 0.459737,0.655693 0.919456,1.311359 1.379185,1.967038"
       transform="matrix(0.81717495,0,0,1.0826054,4.6747674,8.2920789)" />
    <path
       style="fill:none;fill-opacity:1;stroke:#101828;stroke-width:0.687999;stroke-linecap:round;stroke-linejoin:round;stroke-opacity:1;paint-order:markers stroke fill"
       d="m 41.759134,8.1056204 c 0.197178,0.4956101 0.394356,0.9912199 0.46097,1.5507857 0.06661,0.5595659 0.0027,1.1830629 -0.202511,1.8545409 -0.205175,0.671479 -0.551563,1.390899 -0.897957,2.110333"
       id="path5-8"
       inkscape:path-effect="#path-effect6-9"
       inkscape:original-d="m 41.759134,8.1056204 c 0.197178,0.4956101 0.394356,0.9912199 0.591534,1.48683 -0.06395,0.6235216 -0.127899,1.2470186 -0.191849,1.8705276 -0.346401,0.719448 -0.692788,1.438868 -1.039183,2.158302"
       transform="matrix(0.81717495,0,0,1.0826054,8.8272683,8.4033284)" />
    <path
       style="fill:none;fill-opacity:1;stroke:#101828;stroke-width:0.687999;stroke-linecap:round;stroke-linejoin:round;stroke-opacity:1;paint-order:markers stroke fill"
       d="m 45.513169,7.9811966 c -0.437119,0.6933613 -0.874238,1.3867241 -0.942064,2.3438764 -0.06783,0.957153 0.233629,2.178048 0.53509,3.398968"
       id="path6-5"
       inkscape:path-effect="#path-effect7-6"
       inkscape:original-d="m 45.513169,7.9811966 c -0.437118,0.6933618 -0.874239,1.3867236 -1.311357,2.0800854 0.301467,1.220944 0.602922,2.441839 0.904383,3.662759"
       transform="matrix(0.81717495,0,0,1.0826054,8.4946999,8.3788511)" />
    <path
       style="fill:none;fill-opacity:1;stroke:#101828;stroke-width:0.687999;stroke-linecap:round;stroke-linejoin:round;stroke-opacity:1;paint-order:markers stroke fill"
       d="m 42.419907,8.8016693 c 0.435701,0.9851121 0.871402,1.9702227 1.319121,2.7906247 0.44772,0.820402 0.907439,1.476068 1.367167,2.131747"
       id="path7-7"
       inkscape:path-effect="#path-effect8-2"
       inkscape:original-d="m 42.419907,8.8016693 c 0.435703,0.9851114 0.871403,1.9702227 1.307103,2.9553337 0.459737,0.655693 0.919456,1.311359 1.379185,1.967038"
       transform="matrix(0.81717495,0,0,1.0826054,8.4946999,8.3788511)" />
    <path
       style="fill:none;fill-opacity:1;stroke:#df932d;stroke-width:0.687999;stroke-linecap:round;stroke-linejoin:round;stroke-opacity:1;paint-order:markers stroke fill"
       d="m 18.145719,12.885858 c 0.442318,-0.714104 0.884636,-1.428209 1.436209,-1.93448 0.551573,-0.506272 1.212373,-0.804697 1.926485,-0.863316 0.714112,-0.05862 1.481493,0.122568 2.222251,0.207834 0.740757,0.08526 1.454847,0.07461 2.046386,-0.197187 0.59154,-0.2717927 1.060494,-0.8046955 1.529458,-1.3376093"
       id="path13"
       inkscape:path-effect="#path-effect14"
       inkscape:original-d="m 18.145719,12.885858 c 0.442318,-0.714104 0.884636,-1.428209 1.326955,-2.142314 0.660827,-0.298437 1.321627,-0.596863 1.98244,-0.895295 0.767411,0.181194 1.534792,0.362382 2.302188,0.543572 0.714119,-0.01066 1.428209,-0.02132 2.142314,-0.03198 0.468974,-0.5329243 0.937928,-1.0658274 1.406892,-1.5987413"
       sodipodi:nodetypes="cccccc"
       transform="matrix(1.0429026,0,0,1.0429026,-0.92200808,-0.97578921)" />
    <path
       style="fill:none;fill-opacity:1;stroke:#45bad8;stroke-width:0.687999;stroke-linecap:round;stroke-linejoin:round;stroke-opacity:1;paint-order:markers stroke fill"
       d="m 18.145719,12.885858 c 1.135105,-0.03197 2.270213,-0.06395 3.1492,-0.502337 0.878987,-0.43839 1.50183,-1.283163 1.997443,-2.002603 0.495614,-0.7194396 0.863971,-1.3135052 1.511798,-1.7491045 0.647827,-0.4355993 1.575078,-0.7127087 2.502349,-0.9898242"
       id="path14"
       inkscape:path-effect="#path-effect15"
       inkscape:original-d="m 18.145719,12.885858 c 1.135105,-0.03198 2.270213,-0.06395 3.405319,-0.09592 0.622868,-0.844807 1.245711,-1.68958 1.868566,-2.53437 0.368372,-0.5940897 0.736729,-1.1881554 1.105094,-1.7822329 0.927289,-0.277121 1.85454,-0.5542304 2.781811,-0.8313458"
       sodipodi:nodetypes="ccccc"
       transform="matrix(1.0429026,0,0,1.0429026,-0.92200808,-0.97578921)" />
    <path
       style="fill:none;fill-opacity:1;stroke:#920000;stroke-width:0.687999;stroke-linecap:round;stroke-linejoin:round;stroke-opacity:1;paint-order:markers stroke fill"
       d="m 18.336404,7.1446405 c 0.640605,0.685825 1.281211,1.3716503 1.982117,1.7560148 0.700906,0.3843645 1.462082,0.4672649 2.080083,0.9232339 0.618001,0.4559688 1.092793,1.2849718 1.49977,1.8728258 0.406977,0.587853 0.746114,0.934527 1.330204,1.092794 0.58409,0.158267 1.413093,0.128121 2.242112,0.09797"
       id="path15"
       inkscape:path-effect="#path-effect16"
       inkscape:original-d="m 18.336404,7.1446405 c 0.640605,0.6858254 1.281211,1.3716505 1.921817,2.0574756 0.761206,0.082904 1.522382,0.1658041 2.283572,0.248706 0.474812,0.8290359 0.949604,1.6580389 1.424407,2.4870589 0.339151,0.346687 0.678288,0.693361 1.017433,1.040042 0.829035,-0.03015 1.658038,-0.06029 2.487057,-0.09044"
       transform="matrix(1.0429026,0,0,1.0429026,-0.92200808,-0.97578921)" />
    <path
       style="fill:none;fill-opacity:1;stroke:#920000;stroke-width:0.687999;stroke-linecap:round;stroke-linejoin:round;stroke-opacity:1;paint-order:markers stroke fill"
       d="m 17.298385,19.057001 c 0.319748,1.193727 0.639497,2.387455 1.023199,3.11755 0.383703,0.730094 0.831342,0.996546 1.193726,1.071153 0.362384,0.07461 0.639494,-0.04263 0.810027,-0.111912 0.170533,-0.06928 0.23448,-0.0906 0.298431,-0.111912"
       id="path16"
       inkscape:path-effect="#path-effect17"
       inkscape:original-d="m 17.298385,19.057001 c 0.319749,1.193727 0.639497,2.387455 0.959245,3.581182 0.447657,0.266462 0.895296,0.532914 1.342943,0.799371 0.277121,-0.117244 0.554231,-0.234483 0.831346,-0.351724 0.06395,-0.02132 0.127899,-0.04263 0.191849,-0.06395" />
    <path
       style="fill:none;fill-opacity:1;stroke:#920000;stroke-width:0.687999;stroke-linecap:round;stroke-linejoin:round;stroke-opacity:1;paint-order:markers stroke fill"
       d="m 20.623768,23.02188 c 0.426331,-0.24514 0.852662,-0.49028 1.529472,-0.586204 0.67681,-0.09592 1.604062,-0.04263 2.355476,0.122573 0.751415,0.165206 1.32695,0.442315 2.163636,0.650153 0.836686,0.207837 1.934466,0.346392 2.872402,0.335733 0.937936,-0.01066 1.715975,-0.170531 2.61128,-0.346394 0.895305,-0.175863 1.907824,-0.367709 2.723187,-0.362378 0.815364,0.0053 1.433531,0.207834 2.051712,0.410342"
       id="path17"
       inkscape:path-effect="#path-effect18"
       inkscape:original-d="m 20.623768,23.02188 c 0.426331,-0.24514 0.852662,-0.49028 1.278994,-0.73542 0.927288,0.05329 1.85454,0.106582 2.78181,0.159874 0.575559,0.27712 1.151094,0.55423 1.726641,0.831345 1.097825,0.138561 2.195605,0.277115 3.293409,0.415673 0.778068,-0.159877 1.556107,-0.319748 2.334162,-0.479622 1.012555,-0.191853 2.025074,-0.383698 3.03761,-0.575547 0.618191,0.202511 1.236358,0.405014 1.854539,0.607522" />
    <path
       style="fill:none;fill-opacity:1;stroke:#92d200;stroke-width:0.687999;stroke-linecap:round;stroke-linejoin:round;stroke-opacity:1;paint-order:markers stroke fill"
       d="m 20.325337,23.133792 c 0.437357,-0.506331 0.874714,-1.012662 1.183833,-1.589906 0.309119,-0.577243 0.489992,-1.225372 0.671082,-1.863891 0.181089,-0.638519 0.362381,-1.267375 0.479199,-1.316364 0.116819,-0.04899 0.169153,0.481908 0.248077,1.075208 0.07892,0.5933 0.184431,1.248952 0.37789,1.765067 0.19346,0.516115 0.474848,0.892631 0.855451,1.062206 0.380602,0.169576 0.860375,0.132191 1.307534,-0.07115 0.447159,-0.203342 0.861661,-0.572625 1.396762,-1.107727 0.535101,-0.535101 1.190766,-1.235986 2.181835,-1.740937 0.991069,-0.504951 2.317473,-0.813943 3.285924,-0.953368 0.968452,-0.139426 1.578899,-0.10928 2.313721,-0.09421 0.734822,0.01507 1.593969,0.01507 2.144139,0.0829 0.55017,0.06783 0.791335,0.203486 1.032504,0.339143"
       id="path19"
       inkscape:path-effect="#path-effect20"
       inkscape:original-d="m 20.325337,23.133792 c 0.437357,-0.506331 0.874714,-1.012662 1.312071,-1.518993 0.180881,-0.648156 0.361755,-1.296285 0.542631,-1.944428 0.181302,-0.628895 0.362593,-1.257751 0.543896,-1.886646 0.05233,0.530918 0.104669,1.061814 0.157003,1.592721 0.105514,0.655693 0.211021,1.311345 0.316535,1.967038 0.281405,0.376537 0.562793,0.753053 0.844197,1.12959 0.479801,-0.03739 0.959574,-0.07477 1.439375,-0.112157 0.414517,-0.369298 0.829019,-0.738581 1.243528,-1.107871 0.655693,-0.700913 1.311359,-1.401797 1.967036,-2.102695 1.32646,-0.309004 2.652864,-0.617996 3.979294,-0.926995 0.610473,0.03015 1.22092,0.06029 1.83138,0.09044 0.859184,0 1.718331,0 2.577496,0 0.241176,0.13566 0.482341,0.271315 0.723509,0.406973"
       sodipodi:nodetypes="cccccccccccccc" />
    <path
       style="fill:none;fill-opacity:1;stroke:#92d200;stroke-width:0.687999;stroke-linecap:round;stroke-linejoin:round;stroke-opacity:1;paint-order:markers stroke fill"
       d="m 20.325337,23.133792 c -0.369053,0.273701 -0.738106,0.547402 -1.31454,0.697441 -0.576434,0.150039 -1.360219,0.176415 -2.144019,0.202792"
       id="path21"
       inkscape:path-effect="#path-effect21"
       inkscape:original-d="m 20.325337,23.133792 c -0.369053,0.273701 -0.738106,0.547402 -1.107158,0.821103 -0.783816,0.02638 -1.567601,0.05276 -2.351401,0.07913" />
    <path
       style="fill:none;fill-opacity:1;stroke:#92369a;stroke-width:0.687999;stroke-linecap:round;stroke-linejoin:round;stroke-opacity:1;paint-order:markers stroke fill"
       d="m 17.298385,19.057001 c 0.519346,0.626503 1.038693,1.253006 1.671433,1.392914 0.632739,0.139907 1.378842,-0.206767 1.999984,-0.561615 0.621141,-0.354849 1.117287,-0.717851 1.886025,-1.041925 0.768738,-0.324074 1.809994,-0.609196 2.458778,-0.371162 0.648783,0.238033 0.90502,0.999209 1.090924,1.510439 0.185903,0.51123 0.301464,0.772489 0.440892,1.202078 0.139428,0.429588 0.302713,1.027477 0.509841,1.43384 0.207127,0.406364 0.458084,0.621182 0.676645,0.591033 0.218561,-0.03015 0.404716,-0.305257 0.520405,-1.139958 0.11569,-0.834701 0.160909,-2.228933 0.258886,-3.174774 0.09798,-0.945841 0.248704,-1.443243 0.493644,-1.669339 0.244941,-0.226095 0.584079,-0.180877 1.00613,-0.09421 0.422051,0.08667 0.92699,0.214791 1.533688,0.293925 0.606697,0.07913 1.315119,0.10928 1.978341,0.320308 0.663222,0.211027 1.281206,0.60292 1.748474,0.840322 0.467269,0.237402 0.783799,0.320302 1.160629,0.23363 0.376831,-0.08667 0.813943,-0.342912 1.251061,-0.599154"
       id="path22"
       inkscape:path-effect="#path-effect22"
       inkscape:original-d="m 17.298385,19.057001 c 0.519346,0.626503 1.038693,1.253006 1.55804,1.879509 0.746132,-0.346688 1.492235,-0.693362 2.238353,-1.040043 0.496165,-0.363016 0.992311,-0.726018 1.488467,-1.089027 1.04132,-0.285139 2.082576,-0.570261 3.123896,-0.8554 0.256247,0.761206 0.512484,1.522382 0.768726,2.283572 0.115565,0.26127 0.231127,0.522529 0.346689,0.783793 0.163293,0.597913 0.326578,1.195802 0.489868,1.793704 0.250965,0.214825 0.501922,0.429643 0.752882,0.644464 0.186161,-0.275119 0.372317,-0.550227 0.558475,-0.825341 0.04522,-1.394288 0.09044,-2.78852 0.13566,-4.18278 0.150733,-0.497422 0.301461,-0.994824 0.452191,-1.492235 0.339151,0.04522 0.678289,0.09044 1.017434,0.135657 0.504957,0.128124 1.009896,0.256243 1.514843,0.384364 0.708448,0.03015 1.41687,0.06029 2.125305,0.09044 0.618009,0.391908 1.235993,0.783801 1.853988,1.175701 0.316543,0.0829 0.633072,0.165804 0.949606,0.248706 0.437126,-0.256248 0.874239,-0.512485 1.311357,-0.768728"
       sodipodi:nodetypes="cccccccccccccccccc" />
    <path
       style="fill:none;fill-opacity:1;stroke:#2c369a;stroke-width:0.687999;stroke-linecap:round;stroke-linejoin:round;stroke-opacity:1;paint-order:markers stroke fill"
       d="m 27.674178,19.806029 c 0.61046,0.271315 1.22092,0.542631 1.646737,0.896853 0.425817,0.354221 0.666982,0.791332 0.949605,1.202077 0.282624,0.410746 0.606688,0.795102 1.009897,0.942063 0.403209,0.146962 0.885539,0.05653 1.315126,-0.13566 0.429586,-0.192185 0.806406,-0.486105 1.145553,-0.697129 0.339147,-0.211024 0.640603,-0.339142 0.874237,-0.768732 0.233634,-0.42959 0.399434,-1.16062 0.715974,-1.518605 0.31654,-0.357985 0.783796,-0.342912 1.130479,-0.260009 0.346684,0.0829 0.572776,0.233632 0.813947,0.25624 0.241172,0.02261 0.497408,-0.0829 0.753652,-0.188412"
       id="path23"
       inkscape:path-effect="#path-effect23"
       inkscape:original-d="m 27.674178,19.806029 c 0.61046,0.271316 1.22092,0.542631 1.83138,0.813946 0.241173,0.437129 0.482338,0.874239 0.723508,1.311358 0.324078,0.384372 0.648142,0.768728 0.972212,1.153091 0.482348,-0.09044 0.964678,-0.180877 1.447016,-0.271315 0.376836,-0.293931 0.753655,-0.587851 1.13048,-0.881776 0.301469,-0.128123 0.602925,-0.256242 0.904386,-0.384363 0.165809,-0.731059 0.331607,-1.462089 0.497411,-2.193133 0.467276,0.01507 0.934532,0.03015 1.401797,0.04522 0.226102,0.150734 0.452194,0.301462 0.678289,0.452192 0.256248,-0.105513 0.512484,-0.211023 0.768728,-0.316534" />
    <path
       style="fill:none;fill-opacity:1;stroke:#d3d03c;stroke-width:0.687999;stroke-linecap:round;stroke-linejoin:round;stroke-opacity:1;paint-order:markers stroke fill"
       d="m 24.463611,21.456531 c 0.617997,0.271316 1.235993,0.542632 1.853996,0.591617 0.618003,0.04899 1.235985,-0.124351 1.631376,-0.416294 0.395392,-0.291943 0.56817,-0.702471 0.813111,-1.045387 0.244941,-0.342915 0.562028,-0.618198 0.931602,-0.842514 0.369574,-0.224316 0.791611,-0.397652 1.24004,-0.408956 0.448429,-0.0113 0.923221,0.139424 1.247295,0.324072 0.324073,0.184648 0.49741,0.403203 0.670749,0.621762"
       id="path24"
       inkscape:path-effect="#path-effect24"
       inkscape:original-d="m 24.463611,21.456531 c 0.617997,0.271316 1.235993,0.542632 1.853989,0.813947 0.61801,-0.173344 1.235992,-0.346681 1.853989,-0.520021 0.172787,-0.410546 0.345565,-0.821074 0.518346,-1.231612 0.3171,-0.275293 0.634187,-0.550576 0.95128,-0.825864 0.422055,-0.173344 0.844092,-0.346681 1.26614,-0.520021 0.47481,0.150733 0.949602,0.301461 1.424405,0.452192 0.173345,0.218564 0.346681,0.43712 0.52002,0.655679" />
    <path
       style="fill:none;fill-opacity:1;stroke:#1c8328;stroke-width:0.687999;stroke-linecap:round;stroke-linejoin:round;stroke-opacity:1;paint-order:markers stroke fill"
       d="m 32.85178,20.280831 c -0.354216,0.233632 -0.708435,0.467266 -1.104108,0.610461 -0.395672,0.143194 -0.832782,0.195949 -1.12425,0.292292 -0.291467,0.09634 -0.437279,0.236268 -0.520182,0.477441 -0.0829,0.241174 -0.102892,0.583577 -0.339535,0.908954 -0.236642,0.325376 -0.689921,0.633708 -1.243863,0.825891 -0.553942,0.192183 -1.208514,0.268207 -1.91264,0.302452 -0.704126,0.03424 -1.457766,0.02671 -2.441296,0.05685 -0.983531,0.03015 -2.19689,0.09797 -3.403762,0.149075 -1.206873,0.0511 -2.407186,0.08547 -3.607524,0.119846"
       id="path25"
       inkscape:path-effect="#path-effect25"
       inkscape:original-d="m 32.85178,20.280831 c -0.354216,0.233633 -0.708435,0.467266 -1.062651,0.700898 -0.437129,0.05276 -0.874239,0.105512 -1.311357,0.158268 -0.145817,0.13993 -0.291629,0.279855 -0.437444,0.419783 -0.02,0.342418 -0.03998,0.684822 -0.05997,1.027232 -0.453295,0.308344 -0.906574,0.616675 -1.359861,0.925013 -0.654597,0.07603 -1.309169,0.152052 -1.963753,0.228078 -0.753668,-0.0075 -1.507308,-0.01507 -2.260962,-0.02261 -1.213407,0.06783 -2.426766,0.135657 -3.640149,0.203486 -1.200362,0.03437 -2.400675,0.06874 -3.601013,0.103118" />
    <text
       xml:space="preserve"
       transform="matrix(0.72571466,0,0,0.72571466,-29.22881,-55.268702)"
       id="text26"
       style="font-size:8.71879px;line-height:0.9;font-family:'Adwaita Sans';-inkscape-font-specification:'Adwaita Sans, Normal';writing-mode:lr-tb;direction:ltr;white-space:pre;shape-inside:url(#rect26);display:none;fill:none;fill-opacity:1;stroke:#1c8328;stroke-width:2.60031;stroke-linecap:round;stroke-linejoin:round;stroke-opacity:1;paint-order:markers stroke fill"><tspan
         x="61.632812"
         y="128.8455"
         id="tspan2"><tspan
           style="fill:#008000;stroke:none"
           id="tspan1">V o t e r NN</tspan></tspan></text>
    <path
       style="fill:none;fill-opacity:1;stroke:#a10b28;stroke-width:0.388;stroke-linecap:round;stroke-linejoin:round;stroke-dasharray:none;stroke-opacity:1;paint-order:markers stroke fill"
       d="m 14.692436,34.069186 c 0.191849,-0.261128 0.383698,-0.522255 0.652823,-0.631502 0.269125,-0.109247 0.615512,-0.06661 0.871312,0.146554 0.2558,0.213168 0.421001,0.596859 0.608627,0.754696 0.187626,0.157837 0.397661,0.08982 0.625179,0.310599 0.227517,0.220785 0.472492,0.730351 0.692552,0.593828 0.220059,-0.136523 0.415183,-0.919134 0.653972,-1.345087 0.238789,-0.425953 0.521228,-0.495231 0.761041,-0.300712 0.239814,0.194518 0.436988,0.652814 0.634168,1.07382 0.19718,0.421006 0.394354,0.804697 0.615516,0.953912 0.221163,0.149216 0.466298,0.06395 0.730093,-0.130566 0.263795,-0.194517 0.546233,-0.498272 0.831345,-0.676799 0.285112,-0.178526 0.57288,-0.231817 0.90329,-0.119902 0.330411,0.111915 0.703443,0.389025 1.129779,0.458302 0.426335,0.06928 0.905948,-0.06928 1.268333,-0.149214 0.362384,-0.07994 0.60752,-0.101253 0.788711,-0.285112 0.181191,-0.183859 0.29843,-0.530246 0.458306,-0.687455 0.159876,-0.157209 0.362379,-0.125233 0.495609,0.02665 0.13323,0.151884 0.197179,0.423667 0.317085,0.594199 0.119907,0.170533 0.295765,0.23981 0.394355,0.359719 0.09859,0.119909 0.119906,0.290436 0.16254,0.45564 0.04263,0.165205 0.10658,0.325077 0.221159,0.588873 0.114578,0.263796 0.279779,0.631498 0.474294,0.804695 0.194516,0.173196 0.418334,0.15188 0.588868,-0.05063 0.170534,-0.202511 0.287773,-0.586201 0.455643,-0.95125 0.16787,-0.36505 0.386361,-0.711438 0.65815,-0.919275 0.271789,-0.207837 0.596861,-0.277115 0.871314,-0.295767 0.274453,-0.01865 0.49827,0.01332 0.692785,0.125233 0.194515,0.111913 0.359716,0.30376 0.514263,0.572885 0.154547,0.269125 0.298431,0.615511 0.444984,0.834007 0.146553,0.218496 0.295766,0.30909 0.532916,0.338399 0.23715,0.02931 0.56222,-0.0027 0.802033,-0.170539 0.239813,-0.167872 0.394354,-0.471626 0.47962,-0.748744 0.08527,-0.277119 0.101252,-0.527582 0.189184,-0.655481 0.08793,-0.127898 0.247801,-0.133224 0.391689,-0.133224 0.143888,0 0.271786,0.0053 0.40768,-0.0053 0.135895,-0.01066 0.279779,-0.03731 0.405014,-0.04264 0.125235,-0.0053 0.231817,0.01066 0.298432,0.12257 0.06661,0.111914 0.09326,0.319747 0.183859,0.49028 0.0906,0.170533 0.245141,0.303759 0.514266,0.199838 0.269125,-0.103922 0.652816,-0.44498 1.036514,-0.786045"
       id="path26"
       inkscape:path-effect="#path-effect26"
       inkscape:original-d="m 14.692436,34.069186 c 0.191849,-0.261128 0.383698,-0.522255 0.575547,-0.783383 0.346401,0.04263 0.692788,0.08527 1.039182,0.127899 0.165207,0.383704 0.330407,0.767395 0.495611,1.151094 0.210048,-0.06802 0.420083,-0.136047 0.630131,-0.204072 0.244987,0.509594 0.489962,1.01916 0.73495,1.528754 0.195131,-0.78264 0.390255,-1.565251 0.585383,-2.347876 0.28245,-0.06928 0.564889,-0.138557 0.847333,-0.207838 0.197183,0.458316 0.394357,0.916612 0.591535,1.374918 0.197182,0.383706 0.394356,0.767397 0.591534,1.151096 0.245146,-0.08527 0.490281,-0.170535 0.735422,-0.255799 0.282449,-0.303769 0.564888,-0.607523 0.847332,-0.911284 0.28778,-0.05329 0.575548,-0.106582 0.863321,-0.159874 0.373047,0.277122 0.74608,0.554231 1.119119,0.831345 0.479632,-0.13856 0.959245,-0.277114 1.438868,-0.415671 0.245145,-0.02133 0.490281,-0.04264 0.73542,-0.06395 0.117245,-0.346401 0.234484,-0.692788 0.351724,-1.039183 0.202512,0.03197 0.405014,0.06395 0.607523,0.09593 0.06395,0.27179 0.1279,0.543573 0.191849,0.815358 0.175864,0.06928 0.351722,0.138557 0.527585,0.207836 0.02133,0.170537 0.04263,0.341066 0.06395,0.511598 0.06395,0.159877 0.127897,0.319749 0.191846,0.479623 0.165209,0.367718 0.330409,0.73542 0.495613,1.10313 0.223826,-0.02133 0.447645,-0.04263 0.67147,-0.06395 0.117245,-0.383704 0.234481,-0.767395 0.351724,-1.151094 0.218498,-0.3464 0.436988,-0.692788 0.655484,-1.039183 0.325083,-0.06928 0.650155,-0.138557 0.975233,-0.207835 0.223827,0.03198 0.447645,0.06395 0.67147,0.09592 0.165206,0.191852 0.330406,0.383699 0.495609,0.575549 0.143891,0.3464 0.287774,0.692787 0.431663,1.03918 0.149217,0.0906 0.298431,0.181192 0.447646,0.271788 0.325085,-0.03198 0.650155,-0.06395 0.975233,-0.09593 0.154548,-0.303768 0.309088,-0.607523 0.463634,-0.911283 0.01598,-0.250476 0.03198,-0.500939 0.04796,-0.751409 0.159877,-0.0053 0.319746,-0.01066 0.479621,-0.01598 0.127902,0.0053 0.255799,0.01066 0.383698,0.01598 0.143889,-0.02665 0.287775,-0.05329 0.43166,-0.07994 0.106585,0.01598 0.213167,0.03197 0.319749,0.04796 0.02665,0.207841 0.05329,0.415674 0.07994,0.623509 0.154549,0.133231 0.309092,0.266457 0.463637,0.399685 0.383704,-0.341072 0.767395,-0.68213 1.151094,-1.023194"
       sodipodi:nodetypes="ccccccccccccccccccccccccccccccccccccccccc"
       inkscape:export-filename="logosm.png"
       inkscape:export-xdpi="677.07001"
       inkscape:export-ydpi="677.07001" />
    <path
       style="fill:none;fill-opacity:1;stroke:#87c9c5;stroke-width:0.388001;stroke-linecap:round;stroke-linejoin:round;stroke-dasharray:none;stroke-opacity:1;paint-order:markers stroke fill"
       d="m 14.692436,34.069186 c 0.140701,-0.05159 0.281397,-0.103168 0.455376,0.001 0.173979,0.104216 0.38123,0.364221 0.605444,0.692065 0.224215,0.327843 0.465376,0.723498 0.58031,1.160624 0.114934,0.437126 0.10363,0.91568 0.278858,1.373534 0.175228,0.457853 0.536967,0.894954 0.861045,0.970321 0.324078,0.07537 0.610461,-0.211015 0.795107,-0.503058 0.184645,-0.292043 0.267546,-0.589732 0.420163,-1.030625 0.152617,-0.440894 0.374941,-1.024965 0.604808,-1.597747 0.229866,-0.572782 0.467263,-1.134243 0.734813,-1.36976 0.26755,-0.235516 0.565237,-0.145079 0.778146,0.09798 0.212909,0.243057 0.341027,0.638718 0.386246,1.156862 0.04522,0.518144 0.0075,1.158737 0.154502,1.612816 0.146966,0.45408 0.478561,0.721616 0.829017,0.95772 0.350457,0.236105 0.71974,0.440753 1.05135,0.440751 0.331611,-2e-6 0.625525,-0.204646 0.825247,-0.461476 0.199722,-0.25683 0.30523,-0.565815 0.380597,-0.872936 0.07537,-0.307121 0.120585,-0.612344 0.237403,-0.812064 0.116819,-0.199719 0.305229,-0.293924 0.563359,-0.314649 0.25813,-0.02072 0.585961,0.03203 0.78568,0.271319 0.19972,0.239289 0.271316,0.665096 0.414512,1.095266 0.143196,0.430169 0.357982,0.864676 0.666985,1.081935 0.309002,0.217259 0.712198,0.217259 1.089029,0.152614 0.376831,-0.06464 0.727272,-0.193928 1.072072,-0.193927 0.3448,1e-6 0.683938,0.129285 1.075843,0.193929 0.391904,0.06464 0.836552,0.06464 1.215266,-0.0038 0.378714,-0.06841 0.691477,-0.205234 0.913805,-0.354665 0.222328,-0.14943 0.354215,-0.311464 0.542631,-0.450891 0.188415,-0.139427 0.433348,-0.256241 0.693362,-0.211019 0.260013,0.04522 0.535091,0.252472 0.742347,0.460312 0.207256,0.207839 0.34668,0.416257 0.503065,0.520466 0.156385,0.10421 0.329721,0.10421 0.499296,-0.0019 0.169574,-0.106097 0.335375,-0.318282 0.427697,-0.569457 0.09232,-0.251176 0.111162,-0.541326 0.26378,-0.784382 0.152617,-0.243056 0.439001,-0.439002 0.778149,-0.601039 0.339148,-0.162036 0.731041,-0.290155 1.024968,-0.295807 0.293927,-0.0057 0.489872,0.111162 0.685822,0.227978"
       id="path27"
       inkscape:path-effect="#path-effect27"
       inkscape:original-d="m 14.692436,34.069186 c 0.140699,-0.05159 0.281397,-0.103169 0.422097,-0.154752 0.207259,0.260014 0.414509,0.52002 0.621764,0.780031 0.241174,0.395676 0.482335,0.791331 0.723508,1.187005 -0.01131,0.478578 -0.02261,0.957132 -0.03391,1.435712 0.361761,0.437127 0.7235,0.874228 1.085262,1.311356 0.286394,-0.286394 0.572777,-0.572776 0.859165,-0.859164 0.0829,-0.297699 0.165804,-0.595387 0.248706,-0.89308 0.222332,-0.584094 0.444656,-1.168165 0.666984,-1.752246 0.237405,-0.561483 0.474802,-1.122944 0.712203,-1.684417 0.297699,0.09044 0.595386,0.180877 0.89308,0.271315 0.128124,0.395676 0.256242,0.791337 0.384363,1.187005 -0.03768,0.64062 -0.07536,1.281213 -0.113048,1.92182 0.331614,0.267552 0.663209,0.535088 0.994824,0.80264 0.369298,0.204657 0.738581,0.409305 1.107871,0.613957 0.293931,-0.204656 0.587845,-0.4093 0.881776,-0.613956 0.105513,-0.309004 0.211021,-0.617989 0.316535,-0.926994 0.04522,-0.305237 0.09044,-0.61046 0.135657,-0.91569 0.188417,-0.09421 0.376827,-0.188415 0.56524,-0.28262 0.327847,0.05276 0.655679,0.105511 0.983519,0.158266 0.0716,0.425823 0.143194,0.85163 0.214792,1.277443 0.214794,0.434527 0.42958,0.869034 0.644372,1.303551 0.403214,0 0.80641,0 1.209616,0 0.350457,-0.129288 0.700897,-0.258574 1.051346,-0.38786 0.339151,0.129288 0.678289,0.258574 1.017434,0.38786 0.444664,0 0.889312,0 1.333968,0 0.312772,-0.136826 0.625534,-0.273648 0.9383,-0.410469 0.131892,-0.162039 0.263779,-0.324072 0.395666,-0.486108 0.244943,-0.116819 0.489876,-0.233633 0.734814,-0.350449 0.27509,0.207259 0.550167,0.41451 0.825251,0.621766 0.139428,0.208423 0.278853,0.41684 0.418277,0.62526 0.173345,0 0.346681,0 0.520023,0 0.165807,-0.212193 0.331608,-0.424378 0.497412,-0.636566 0.01884,-0.290163 0.03768,-0.580313 0.05652,-0.870471 0.286396,-0.195953 0.572778,-0.391901 0.859166,-0.587849 0.391909,-0.128124 0.783802,-0.256243 1.175703,-0.384365 0.195953,0.116819 0.391898,0.233632 0.587848,0.350448"
       sodipodi:nodetypes="ccccccccccccccccccccccccccccccccccccc" />
    <path
       style="fill:none;fill-opacity:1;stroke:#87c90c;stroke-width:0.388001;stroke-linecap:round;stroke-linejoin:round;stroke-dasharray:none;stroke-opacity:1;paint-order:markers stroke fill"
       d="m 34.886648,38.236368 c -0.114389,-0.62966 -0.228778,-1.259321 -0.398353,-1.719637 -0.169575,-0.460315 -0.394326,-0.751271 -0.6499,-0.582096 -0.255575,0.169175 -0.541958,0.798464 -0.801971,1.258778 -0.260013,0.460314 -0.493642,0.751632 -0.938932,0.88652 -0.44529,0.134888 -1.102211,0.113342 -1.558506,-0.123774 -0.456296,-0.237117 -0.711943,-0.689786 -0.989267,-0.982028 -0.277323,-0.292241 -0.576307,-0.424043 -0.809609,-0.285484 -0.233302,0.138559 -0.40091,0.547464 -0.586461,0.850481 -0.185551,0.303017 -0.389033,0.500128 -0.592519,0.697243"
       id="path28"
       inkscape:path-effect="#path-effect28"
       inkscape:original-d="m 34.886648,38.236368 c -0.11439,-0.62966 -0.22878,-1.259321 -0.343167,-1.888982 -0.224761,-0.29097 -0.449511,-0.581927 -0.674267,-0.872889 -0.286393,0.629314 -0.572778,1.258602 -0.859165,1.887902 -0.233638,0.291328 -0.467265,0.582647 -0.7009,0.873969 -0.656947,-0.02154 -1.313868,-0.0431 -1.970802,-0.06464 -0.255656,-0.452686 -0.511302,-0.905356 -0.766956,-1.358032 -0.298995,-0.131807 -0.597979,-0.263609 -0.896969,-0.395412 -0.167613,0.408922 -0.335222,0.817827 -0.502833,1.226741 -0.203491,0.19712 -0.406974,0.394229 -0.610459,0.591346" />
    <path
       style="fill:none;fill-opacity:1;stroke:#f2c90c;stroke-width:0.388001;stroke-linecap:round;stroke-linejoin:round;stroke-dasharray:none;stroke-opacity:1;paint-order:markers stroke fill"
       d="m 38.00409,33.136591 c -0.983694,0.256819 -1.967379,0.513635 -2.749813,1.105578 -0.782433,0.591943 -1.363599,1.518994 -2.167604,1.968658 -0.804005,0.449663 -1.830799,0.42191 -2.612364,0.438444 -0.781566,0.01654 -1.317853,0.07735 -1.668617,-0.187631 -0.350765,-0.264984 -0.515957,-0.855731 -0.880879,-1.093402 -0.364922,-0.23767 -0.929525,-0.122231 -1.338544,-0.123565 -0.40902,-0.0013 -0.662409,-0.119441 -1.0005,-0.153628 -0.33809,-0.03419 -0.760859,0.01555 -1.328981,0.07243 -0.568122,0.05688 -1.281543,0.120903 -1.894021,0.634254 -0.612478,0.513351 -1.123935,1.475967 -1.75481,1.957306 -0.630876,0.481338 -1.381105,0.481338 -2.131351,0.481338"
       id="path29"
       inkscape:path-effect="#path-effect29"
       inkscape:original-d="m 38.00409,33.136591 c -0.983694,0.256819 -1.967379,0.513635 -2.95107,0.770453 -0.581176,0.927068 -1.162342,1.854119 -1.743527,2.7812 -1.026825,-0.02775 -2.053619,-0.05551 -3.080427,-0.08326 -0.536323,0.06082 -1.07261,0.121639 -1.608935,0.182461 -0.165204,-0.590789 -0.330395,-1.181536 -0.495599,-1.772324 -0.564641,0.115446 -1.129244,0.230885 -1.693883,0.346332 -0.2534,-0.118113 -0.506789,-0.236221 -0.760184,-0.354332 -0.422786,0.04974 -0.845555,0.09947 -1.268333,0.149211 -0.713466,0.06403 -1.426887,0.128046 -2.140354,0.192072 -0.511489,0.962677 -1.022946,1.925293 -1.534435,2.88797 -0.750262,0 -1.500491,0 -2.250737,0"
       sodipodi:nodetypes="cccccccccccc" />
    <path
       style="fill:none;fill-opacity:1;stroke:#f25b5f;stroke-width:0.388001;stroke-linecap:round;stroke-linejoin:round;stroke-dasharray:none;stroke-opacity:1;paint-order:markers stroke fill"
       d="m 39.201148,38.06604 0.783383,-5.115972 1.950464,5.115972 1.167082,-5.131961 1.806578,5.099986 0.735422,-5.131961"
       id="path31" />
    <circle
       style="fill:#800000;fill-opacity:1;stroke:none;stroke-width:0.241871;stroke-linecap:round;stroke-linejoin:round;stroke-dasharray:none;stroke-opacity:1;paint-order:markers stroke fill"
       id="path30-1"
       cx="53.412781"
       cy="23.537949"
       r="0.38369805" />
    <circle
       style="fill:#800000;fill-opacity:1;stroke:none;stroke-width:0.241871;stroke-linecap:round;stroke-linejoin:round;stroke-dasharray:none;stroke-opacity:1;paint-order:markers stroke fill"
       id="path30-0-9"
       cx="55.380878"
       cy="28.586781"
       r="0.38369805" />
    <circle
       style="fill:#800000;fill-opacity:1;stroke:none;stroke-width:0.241871;stroke-linecap:round;stroke-linejoin:round;stroke-dasharray:none;stroke-opacity:1;paint-order:markers stroke fill"
       id="path30-05-6"
       cx="56.579056"
       cy="23.557777"
       r="0.38369805" />
    <circle
       style="fill:#800000;fill-opacity:1;stroke:none;stroke-width:0.241871;stroke-linecap:round;stroke-linejoin:round;stroke-dasharray:none;stroke-opacity:1;paint-order:markers stroke fill"
       id="path30-4-2"
       cx="52.645386"
       cy="28.612953"
       r="0.38369805" />
    <circle
       style="fill:#800000;fill-opacity:1;stroke:none;stroke-width:0.241871;stroke-linecap:round;stroke-linejoin:round;stroke-dasharray:none;stroke-opacity:1;paint-order:markers stroke fill"
       id="path30-2-5"
       cx="59.130013"
       cy="23.509277"
       r="0.38369805" />
    <circle
       style="fill:#800000;fill-opacity:1;stroke:none;stroke-width:0.241871;stroke-linecap:round;stroke-linejoin:round;stroke-dasharray:none;stroke-opacity:1;paint-order:markers stroke fill"
       id="path30-4-8-4"
       cx="58.362617"
       cy="28.584282"
       r="0.38369805" />
    <path
       style="fill:#000080;fill-opacity:1;stroke:none;stroke-width:0.388001;stroke-linecap:round;stroke-linejoin:round;stroke-dasharray:none;stroke-opacity:1;paint-order:markers stroke fill"
       d="m 52.640299,28.648575 0.783383,-5.115972 1.950464,5.115972 1.167082,-5.131961 1.806578,5.099986 0.735422,-5.131961"
       id="path31-4" />
    <circle
       style="fill:#7b0012;fill-opacity:1;stroke:none;stroke-width:0.241871;stroke-linecap:round;stroke-linejoin:round;stroke-dasharray:none;stroke-opacity:1;paint-order:markers stroke fill"
       id="path30"
       cx="39.973629"
       cy="32.955414"
       r="0.38369805" />
    <circle
       style="fill:#7b0012;fill-opacity:1;stroke:none;stroke-width:0.241871;stroke-linecap:round;stroke-linejoin:round;stroke-dasharray:none;stroke-opacity:1;paint-order:markers stroke fill"
       id="path30-0"
       cx="41.941727"
       cy="38.004246"
       r="0.38369805" />
    <circle
       style="fill:#7b0012;fill-opacity:1;stroke:none;stroke-width:0.241871;stroke-linecap:round;stroke-linejoin:round;stroke-dasharray:none;stroke-opacity:1;paint-order:markers stroke fill"
       id="path30-05"
       cx="43.139904"
       cy="32.975243"
       r="0.38369805" />
    <circle
       style="fill:#7b0012;fill-opacity:1;stroke:none;stroke-width:0.241871;stroke-linecap:round;stroke-linejoin:round;stroke-dasharray:none;stroke-opacity:1;paint-order:markers stroke fill"
       id="path30-4"
       cx="39.206234"
       cy="38.030418"
       r="0.38369805" />
    <circle
       style="fill:#7b0012;fill-opacity:1;stroke:none;stroke-width:0.241871;stroke-linecap:round;stroke-linejoin:round;stroke-dasharray:none;stroke-opacity:1;paint-order:markers stroke fill"
       id="path30-2"
       cx="45.690861"
       cy="32.926743"
       r="0.38369805" />
    <circle
       style="fill:#7b0012;fill-opacity:1;stroke:none;stroke-width:0.241871;stroke-linecap:round;stroke-linejoin:round;stroke-dasharray:none;stroke-opacity:1;paint-order:markers stroke fill"
       id="path30-4-8"
       cx="44.923466"
       cy="38.001747"
       r="0.38369805" />
  </g>
</svg>
